<?xml version="1.0" ?><svg width="32px" height="32px" viewBox="0 0 32 32" xmlns="http://www.w3.org/2000/svg"><defs><style>.cls-1{fill:#ff005c;}</style></defs><title/><g data-name="Layer 24" id="Layer_24"><path d="M14.57,12.21,9.27,6.9A4.5,4.5,0,0,0,2.9,13.27l5.31,5.3H9.62l5-5ZM8.91,16.45l-4.59-4.6A2.5,2.5,0,0,1,7.85,8.32l4.6,4.59Z"/><path d="M29.55,6.9a4.52,4.52,0,0,0-6.37,0l-5.3,5.31v1.41l4.95,5h1.41l5.31-5.3a4.53,4.53,0,0,0,0-6.37Zm-1.42,4.95-4.59,4.6L20,12.91l4.6-4.59a2.5,2.5,0,0,1,3.53,3.53Z"/><path class="cls-1" d="M28.86,10.09a2.48,2.48,0,0,1-.73,1.76l-4.59,4.6L20,12.91l4.6-4.59a2.5,2.5,0,0,1,4.26,1.77Z"/><rect height="3" width="2" x="11" y="22"/><rect height="3" width="2" x="13" y="26"/><rect height="3" width="2" x="13" y="18"/><rect height="3" width="2" x="19" y="22"/><rect height="3" width="2" x="17" y="26"/><rect height="3" width="2" x="17" y="18"/></g></svg>